<svg xmlns="http://www.w3.org/2000/svg" viewBox="0 0 209.97 89.7"><defs><style>.cls-1{fill:#fff;}.cls-2{fill:#6abdc2;}.cls-3{fill:#f4f4f4;}</style></defs><title>ixda-logo-white</title><g id="Capa_2" data-name="Capa 2"><g id="Capa_1-2" data-name="Capa 1"><g id="Capa_2-2" data-name="Capa 2"><g id="Capa_1-2-2" data-name="Capa 1-2"><path class="cls-1" d="M0,1.19H10v65.6H0Z"/><path class="cls-1" d="M100.42,1.19h22.94c8.66,0,15.75,3.87,20,11.06,3.23,5.53,3.5,8,3.5,21.74,0,14.75-.74,17.33-3.69,21.93A23.51,23.51,0,0,1,122.7,66.79H100.42Zm10,56.2H122.3c5.62,0,9.58-1.93,12.16-5.71,2.21-3.31,2.48-5.16,2.48-17.32,0-11.79-.27-14.65-3-18.24-3-4.15-6.35-5.53-11.7-5.53H110.36Z"/><path class="cls-1" d="M194.33,52.14H169.42l-5,14.65H153.88l23.87-65.6H186l23.86,65.6H199.42Zm-2.86-8.84L182,14.64h-.19L172.31,43.3Z"/><path class="cls-2" d="M56.31,14.31a1.46,1.46,0,0,1-2.06,0L48.33,8.4a1.46,1.46,0,0,1,0-2.06L54.24.43a1.46,1.46,0,0,1,2.06,0l5.91,5.91a1.46,1.46,0,0,1,0,2.06Z"/><path class="cls-3" d="M26.25,17.19Z"/><path class="cls-3" d="M34.42,66.8Z"/><path class="cls-3" d="M74.5,9h0Z"/><path class="cls-3" d="M75,8.8"/><path class="cls-3" d="M35.68,66.72l-.28.06Z"/><path class="cls-3" d="M26.28,18v0Z"/><path class="cls-3" d="M26.25,57.89v0Z"/><path class="cls-3" d="M74.74,66.69a1.68,1.68,0,0,0,.47.1A1.33,1.33,0,0,1,74.74,66.69Z"/><path class="cls-3" d="M36.3,66.38a1.4,1.4,0,0,1-.39.26A1.45,1.45,0,0,0,36.3,66.38Z"/><path class="cls-3" d="M84.29,57.8v.78C84.29,58.29,84.3,58,84.29,57.8Z"/><path class="cls-3" d="M76.08,66.8Z"/><path class="cls-2" d="M73.81,65.36V57.74a1.44,1.44,0,0,1,1.43-1.43h7.62a1.43,1.43,0,0,1,1.32.88,1.43,1.43,0,0,0-.33-.5L66,38.81a1.46,1.46,0,0,1,0-2.06L83.71,19l.11-.14a1.41,1.41,0,0,1-1,.38H75.2a1.44,1.44,0,0,1-1.43-1.43V10.18a1.41,1.41,0,0,1,.4-1l-.09.06L56.26,27a1.46,1.46,0,0,1-2.06,0L36.42,9.29h0a1.4,1.4,0,0,1,.37.93V17.8a1.44,1.44,0,0,1-1.43,1.43H27.69a1.44,1.44,0,0,1-1-.39h0L44.51,36.7a1.47,1.47,0,0,1,0,2.06l-17.8,17.9a1.43,1.43,0,0,0-.33.5,1.44,1.44,0,0,1,1.3-.86h7.61a1.44,1.44,0,0,1,1.43,1.43v7.62a1.43,1.43,0,0,1-.42,1,.1.1,0,0,0,.08-.06L54.23,48.45a1.46,1.46,0,0,1,2.06,0L74.16,66.32a1.49,1.49,0,0,0,.51.33A1.44,1.44,0,0,1,73.81,65.36Z"/><path class="cls-3" d="M84.18,57.19a1.33,1.33,0,0,1,.11.54A1.57,1.57,0,0,0,84.18,57.19Z"/><path class="cls-3" d="M26.34,57.27a1.84,1.84,0,0,0-.08.42A1.47,1.47,0,0,1,26.34,57.27Z"/><rect class="cls-1" x="26.25" y="8.75" width="10.48" height="10.49" rx="1.43" ry="1.43"/><path class="cls-1" d="M82.86,8.75H75.24a1.44,1.44,0,0,0-1.43,1.43V17.8a1.44,1.44,0,0,0,1.43,1.43h7.62a1.44,1.44,0,0,0,1.43-1.43V10.18A1.44,1.44,0,0,0,82.86,8.75Z"/><rect class="cls-1" x="26.25" y="56.31" width="10.48" height="10.49" rx="1.43" ry="1.43"/><path class="cls-1" d="M82.86,56.31H75.24a1.44,1.44,0,0,0-1.43,1.43v7.62a1.44,1.44,0,0,0,1.43,1.43h7.62a1.44,1.44,0,0,0,1.43-1.43V57.74A1.44,1.44,0,0,0,82.86,56.31Z"/><path class="cls-1" d="M0,79.56H1.18v9.12H6.42v1H0Z"/><path class="cls-1" d="M32.56,79.55h1.07L37.36,89.7H36.15l-1-2.94H31l-1.1,2.94H28.77Zm2.23,6.25-1.72-4.87h0L31.32,85.8Z"/><path class="cls-1" d="M84.87,79.58h3.64a3,3,0,0,1,3.26,2.72q0,.14,0,.28a3.07,3.07,0,0,1-3,3.13H86v4H84.87Zm3.25,5.14c1.55,0,2.51-.7,2.51-2.1a2,2,0,0,0-2.27-2.07H86v4.17Z"/><path class="cls-1" d="M114.75,79.56h1.15v9.12h5.23v1h-6.38Z"/><path class="cls-1" d="M147.28,79.55h1.06l3.73,10.15h-1.21l-1-2.94h-4.13l-1.06,2.94h-1.15Zm2.23,6.25-1.72-4.87h0L146,85.8Z"/><path class="cls-1" d="M176.27,80.56H173v-1h7.71v1h-3.27V89.7h-1.14Z"/><path class="cls-1" d="M205.18,79.55h1.06L210,89.7h-1.21l-1-2.94h-4.13l-1.07,2.94h-1.14Zm2.24,6.25-1.72-4.87h0L204,85.8Z"/></g></g></g></g></svg>